<svg width="89" height="105" viewBox="0 0 89 105" fill="none" xmlns="http://www.w3.org/2000/svg">
<path d="M7.83208 18.8916H0.715851V15.3203L6.87259 0.814453H11.9099V15.4608H14.2687V18.8916H11.9099V24.4893H7.91204L7.83208 18.8916ZM7.83208 15.4608V5.42905L4.25398 15.4608H7.83208Z" fill="white"/>
<path d="M27.3418 10.9662C27.0223 10.6617 26.7343 10.3256 26.4822 9.96298H26.3023C25.9351 9.99626 25.5651 9.94689 25.2193 9.81847C24.8735 9.69005 24.5606 9.48581 24.3034 9.22063C23.8622 8.57345 23.651 7.79603 23.7037 7.01365V3.60286C23.6508 2.82673 23.8622 2.0556 24.3034 1.41595C24.5648 1.15777 24.8789 0.959519 25.2239 0.834831C25.569 0.710144 25.9369 0.661983 26.3023 0.693663C26.668 0.65782 27.0371 0.70403 27.3828 0.82895C27.7285 0.953869 28.0422 1.15437 28.3013 1.41595C28.7424 2.0556 28.9538 2.82673 28.9009 3.60286V7.01365C28.9009 8.39803 28.4812 9.30089 27.6416 9.68209C27.8982 10.0177 28.201 10.315 28.5411 10.5649L28.2413 11.6483C27.8984 11.4845 27.5924 11.2524 27.3418 10.9662ZM27.0419 8.39803C27.1859 8.08397 27.2544 7.74035 27.2418 7.39486V3.22166C27.2543 2.88264 27.1857 2.54556 27.0419 2.23855C26.9481 2.1318 26.8328 2.04631 26.7035 1.98776C26.5743 1.9292 26.4341 1.89891 26.2923 1.89891C26.1505 1.89891 26.0103 1.9292 25.8811 1.98776C25.7519 2.04631 25.6365 2.1318 25.5427 2.23855C25.4011 2.54577 25.3392 2.88397 25.3628 3.22166V7.39486C25.3432 7.7388 25.4049 8.08253 25.5427 8.39803C25.6234 8.52307 25.7373 8.62308 25.8714 8.68686C26.0056 8.75064 26.1548 8.77568 26.3023 8.75917C26.4471 8.7766 26.5939 8.75181 26.725 8.68777C26.8562 8.62373 26.9662 8.52314 27.0419 8.39803Z" fill="white"/>
<path d="M30.9998 9.6018C30.6222 9.37929 30.3433 9.02048 30.2203 8.59863C30.0622 8.0513 29.9881 7.48302 30.0004 6.9133V0.894262H31.5995V7.11393C31.5814 7.5231 31.6425 7.9319 31.7794 8.31774C31.8606 8.44619 31.9728 8.55197 32.1056 8.62526C32.2384 8.69856 32.3875 8.73699 32.539 8.73699C32.6906 8.73699 32.8397 8.69856 32.9725 8.62526C33.1053 8.55197 33.2174 8.44619 33.2986 8.31774C33.4355 7.9319 33.4966 7.5231 33.4785 7.11393V0.793945H35.0777V6.9133C35.0901 7.47643 35.016 8.03813 34.8578 8.57857C34.7272 9.00171 34.4508 9.36442 34.0782 9.6018C33.5995 9.83891 33.0728 9.96224 32.539 9.96224C32.0052 9.96224 31.4785 9.83891 30.9998 9.6018Z" fill="white"/>
<path d="M37.6563 0.793945H39.4154L41.2344 9.84256H39.6952L39.3354 7.83622H37.7762L37.3964 9.84256H35.8572L37.6563 0.793945ZM39.1755 6.81298L38.5558 3.00093L37.9361 6.81298H39.1755Z" fill="white"/>
<path d="M42.074 0.793945H43.7131V8.81933H45.9119V9.94288H42.074V0.793945Z" fill="white"/>
<path d="M46.7515 0.793945H48.3706V9.84256H46.7515V0.793945Z" fill="white"/>
<path d="M50.5895 2.03804H49.0903V0.834229H53.7078V2.03804H52.2286V9.84272H50.5895V2.03804Z" fill="white"/>
<path d="M55.6468 6.39165L53.8077 0.793945H55.3469L56.4663 4.3853L57.5258 0.793945H59.025L57.2259 6.39165V9.84256H55.6668L55.6468 6.39165Z" fill="white"/>
<path d="M23.8436 15.5811H27.6216V16.7447H25.4828V19.353H27.2418V20.4966H25.5627V23.5061H27.6416V24.6497H23.8436V15.5811Z" fill="white"/>
<path d="M28.5411 15.5809H30.68C31.2681 15.5529 31.8551 15.6557 32.3991 15.8819C32.7889 16.0697 33.1003 16.3893 33.2786 16.7847C33.4762 17.3026 33.5647 17.8559 33.5385 18.4099V21.7003C33.5613 22.2671 33.473 22.8329 33.2786 23.3655C33.1107 23.7824 32.7983 24.1244 32.3991 24.3286C31.8775 24.5606 31.3101 24.6704 30.74 24.6496H28.5411V15.5809ZM30.7 23.4859C30.9783 23.5048 31.2561 23.442 31.4996 23.3053C31.6629 23.1683 31.7698 22.9752 31.7994 22.7636C31.8266 22.4298 31.8266 22.0943 31.7994 21.7605V18.2895C31.8257 17.9824 31.8257 17.6736 31.7994 17.3666C31.7467 17.176 31.6257 17.0116 31.4596 16.9051C31.2164 16.7908 30.9476 16.7424 30.68 16.7647H30.1803V23.4859H30.7Z" fill="white"/>
<path d="M35.6374 24.409C35.2623 24.1743 34.9852 23.8106 34.8578 23.3857C34.6914 22.8471 34.617 22.284 34.6379 21.7205V15.5811H36.237V21.901C36.219 22.3102 36.2801 22.719 36.417 23.1048C36.4981 23.2333 36.6103 23.3391 36.7431 23.4124C36.8759 23.4857 37.025 23.5241 37.1766 23.5241C37.3281 23.5241 37.4772 23.4857 37.61 23.4124C37.7428 23.3391 37.855 23.2333 37.9362 23.1048C38.073 22.719 38.1341 22.3102 38.1161 21.901V15.5811H39.7152V21.7205C39.7261 22.2835 39.652 22.845 39.4953 23.3857C39.3546 23.8035 39.0806 24.1632 38.7157 24.409C38.2463 24.6712 37.7131 24.7963 37.1766 24.7701C36.6395 24.8018 36.1048 24.6764 35.6374 24.409Z" fill="white"/>
<path d="M41.3943 23.9675C40.9559 23.3115 40.7451 22.5288 40.7947 21.7404V18.5102C40.7436 17.7182 40.9467 16.9307 41.3743 16.2631C41.6222 15.9833 41.9326 15.7665 42.28 15.6305C42.6275 15.4945 43.0022 15.4431 43.3733 15.4806C43.7083 15.4349 44.0492 15.4653 44.371 15.5694C44.6927 15.6736 44.9871 15.849 45.2323 16.0825C45.6628 16.6573 45.8625 17.3733 45.792 18.0889V18.8513H44.2328V18.0889C44.2467 17.8349 44.2467 17.5804 44.2328 17.3265C44.2231 17.2321 44.1944 17.1406 44.1484 17.0577C44.1025 16.9748 44.0402 16.902 43.9655 16.8439C43.8908 16.7858 43.8051 16.7435 43.7136 16.7195C43.6221 16.6955 43.5268 16.6904 43.4333 16.7045C43.3248 16.6928 43.2151 16.7046 43.1116 16.7392C43.0082 16.7738 42.9133 16.8304 42.8336 16.9051C42.6947 17.0311 42.603 17.2011 42.5737 17.3866C42.5491 17.6536 42.5491 17.9222 42.5737 18.1892V22.2019C42.5446 22.5808 42.6134 22.9609 42.7736 23.3054C42.8487 23.4252 42.9563 23.5209 43.0838 23.5813C43.2113 23.6418 43.3534 23.6644 43.4932 23.6464C43.6961 23.6619 43.897 23.5971 44.0529 23.4659C44.1788 23.3329 44.2623 23.1652 44.2928 22.9844C44.3066 22.7237 44.3066 22.4625 44.2928 22.2019V21.3793H45.872V22.1016C45.8806 22.8222 45.6562 23.5262 45.2323 24.1079C44.7043 24.5972 44.012 24.8689 43.2933 24.8689C42.5747 24.8689 41.8824 24.5972 41.3544 24.1079L41.3943 23.9675Z" fill="white"/>
<path d="M48.2507 15.5811H50.0098L51.8288 24.6497H50.2897L49.9498 22.5431H48.3707L48.0109 24.6497H46.4517L48.2507 15.5811ZM49.7699 21.4998L49.2302 17.7078L48.6105 21.4998H49.7699Z" fill="white"/>
<path d="M53.2281 16.8049H51.7089V15.5811H56.3464V16.8049H54.8672V24.6497H53.2281V16.8049Z" fill="white"/>
<path d="M57.0861 15.5811H58.7252V24.6497H57.0861V15.5811Z" fill="white"/>
<path d="M60.5042 32.108C60.063 31.4608 59.8518 30.6834 59.9045 29.901V26.41C59.8484 25.6335 60.0601 24.8613 60.5042 24.2231C60.7614 23.9579 61.0743 23.7536 61.4201 23.6252C61.7659 23.4968 62.1359 23.4474 62.5032 23.4807C62.8706 23.4445 63.2414 23.4925 63.5877 23.6211C63.934 23.7497 64.2466 23.9555 64.5021 24.2231C64.9462 24.8613 65.1579 25.6335 65.1018 26.41V29.8007C65.1585 30.5864 64.9393 31.3673 64.4821 32.0077C64.2304 32.2813 63.9188 32.4925 63.572 32.6248C63.2251 32.7571 62.8524 32.8068 62.4832 32.7701C62.1252 32.8107 61.7627 32.7725 61.4209 32.6582C61.0791 32.5438 60.7663 32.3561 60.5042 32.108ZM63.2628 31.3055C63.3985 30.9893 63.46 30.6461 63.4427 30.3023V26.089C63.4623 25.745 63.4006 25.4013 63.2628 25.0858C63.1827 24.9661 63.0713 24.8709 62.9408 24.8107C62.8103 24.7505 62.6658 24.7277 62.5231 24.7447C62.3777 24.7283 62.2306 24.7513 62.097 24.8113C61.9634 24.8713 61.8483 24.966 61.7635 25.0858C61.6278 25.4019 61.5663 25.7451 61.5836 26.089V30.2622C61.5663 30.606 61.6278 30.9492 61.7635 31.2653C61.8483 31.3851 61.9634 31.4798 62.097 31.5398C62.2306 31.5998 62.3777 31.6228 62.5231 31.6064C62.6647 31.6077 62.8041 31.5712 62.927 31.5007C63.0499 31.4302 63.152 31.3282 63.2228 31.2051L63.2628 31.3055Z" fill="white"/>
<path d="M66.2811 23.5811H67.4205L69.6194 28.7574V23.5811H70.9786V32.6497H69.8792L67.6804 27.2326V32.6497H66.2811V23.5811Z" fill="white"/>
<path d="M46.1118 56.6308L23.8236 43.71V85.5222L46.1118 92.2836V56.6308Z" fill="white"/>
<path d="M48.5705 64.7311V100.304L71.0186 93.5222V51.71L48.5705 64.7311Z" fill="white"/>
<path d="M83.9118 92.7797H83.2522L85.8908 102.049L88.5294 92.7797H87.8697H88.5294V55.582H87.8697H87.2101H86.5304H85.2111H84.5515H83.9118H83.2522V92.7797H83.9118Z" fill="white"/>
<path d="M75.8161 53.5156L73.4174 51.6096V94.6658L48.6305 102.691H47.4911H47.2712H46.1118L21.4449 95.7693V51.6096L19.0461 53.5156V97.4747L46.0119 104.958H47.2712H47.4911H48.7504L73.6173 97.0333L75.8161 96.3712V53.5156Z" fill="white"/>
<path d="M88.5294 50.6464C88.5294 49.944 88.2514 49.2704 87.7565 48.7737C87.2617 48.2771 86.5906 47.998 85.8908 47.998C85.191 47.998 84.5198 48.2771 84.025 48.7737C83.5302 49.2704 83.2522 49.944 83.2522 50.6464V53.5155H88.5294V50.6464Z" fill="white"/>
</svg>
