<svg width="85" height="108" viewBox="0 0 85 108" fill="none" xmlns="http://www.w3.org/2000/svg">
<path d="M2.28179 23.4288C1.28618 22.2338 0.688808 20.6405 0.88793 19.0472V18.6489H5.26863C5.26863 19.4455 5.26863 20.2422 5.66687 20.8397C5.866 21.238 6.46336 21.6364 7.06073 21.4372C7.45898 21.4372 7.85722 21.238 8.05635 21.0389C8.25547 20.8397 8.45459 20.2422 8.45459 19.6447C8.65371 18.6489 8.65371 17.6531 8.65371 16.8564V14.4664C8.25547 14.8648 7.85722 15.2631 7.45898 15.4623C6.86161 15.6614 6.06512 15.8606 5.46775 15.8606C3.87477 15.8606 2.48091 15.2631 1.68442 13.869C0.88793 12.2756 0.489685 10.4832 0.489685 8.69069C0.489685 3.31327 2.68003 0.724133 6.86161 0.724133C8.65371 0.524969 10.4458 1.32162 11.6406 2.71577C12.8353 4.30908 13.2335 6.30073 13.2335 8.49153V17.0556C13.4327 19.0472 12.8353 21.238 11.8397 23.0305C10.6449 24.6238 8.85284 25.2213 6.86161 25.0221C5.06951 25.2213 3.47652 24.6238 2.28179 23.4288ZM8.65371 11.2798V7.49571C8.65371 6.69905 8.65371 5.9024 8.25547 5.10574C8.05635 4.50825 7.45898 4.10992 6.86161 4.30908C6.06512 4.30908 5.66687 4.70741 5.46775 5.3049C5.06951 6.30072 5.06951 7.29655 5.06951 8.49153C5.06951 9.28819 5.06951 10.0848 5.26863 10.8815C5.26863 11.2798 5.46775 11.8773 5.66687 12.0765C5.866 12.2756 6.46336 12.4748 6.86161 12.4748C7.45898 12.4748 8.25547 12.0765 8.65371 11.2798Z" fill="white"/>
<path d="M18.4108 10.0852V1.1228H20.0037V10.0852H18.4108Z" fill="white"/>
<path d="M20.8003 10.0852V1.1228H21.995L24.1854 6.30107V1.1228H25.5792V10.0852H24.3845L22.1942 4.70775V10.0852H20.8003Z" fill="white"/>
<path d="M26.1765 10.0852V1.1228H28.3669C28.9642 1.1228 29.5616 1.1228 30.159 1.52113C30.5572 1.72029 30.9555 2.11862 30.9555 2.51695C31.1546 3.11444 31.1546 3.51277 31.1546 4.11026V7.29689C31.1546 7.89438 31.1546 8.49187 30.9555 8.8902C30.7563 9.28853 30.5572 9.68685 30.159 9.88602C29.5616 10.0852 28.9642 10.2843 28.566 10.2843L26.1765 10.0852ZM27.9686 8.8902H28.3669C28.566 8.8902 28.9642 8.8902 29.1634 8.69103C29.3625 8.49187 29.3625 8.29271 29.3625 8.09354C29.3625 7.69521 29.3625 7.49605 29.3625 7.09772V3.71193C29.3625 3.51277 29.3625 3.11444 29.3625 2.91528C29.3625 2.71611 29.1634 2.51695 28.9642 2.51695C28.7651 2.31779 28.3669 2.31779 28.1677 2.31779H27.7695V8.8902H27.9686Z" fill="white"/>
<path d="M34.3405 10.0852C33.7432 10.0852 33.3449 10.0852 32.7476 9.68685C32.3493 9.48769 32.1502 9.08936 31.9511 8.69103C31.752 8.09354 31.752 7.69521 31.752 7.09772V1.1228H33.3449V7.29689C33.3449 7.49605 33.3449 7.89438 33.3449 8.09354C33.3449 8.29271 33.5441 8.49187 33.5441 8.69103C33.9423 9.08936 34.3405 9.08936 34.7388 8.69103C34.9379 8.49187 34.9379 8.29271 34.9379 8.09354C34.9379 7.89438 34.9379 7.49605 34.9379 7.29689V1.1228H36.5309V7.29689C36.5309 7.89438 36.5309 8.29271 36.3318 8.8902C36.1327 9.28853 35.9335 9.68685 35.5353 9.88602C35.3362 10.0852 34.7388 10.0852 34.3405 10.0852Z" fill="white"/>
<path d="M39.9159 10.0852C39.5177 10.0852 38.9203 10.0852 38.5221 9.68687C38.1238 9.4877 37.9247 9.08938 37.7256 8.69105C37.5265 8.29272 37.3274 7.69523 37.3274 7.09774L38.7212 6.89857C38.7212 7.2969 38.7212 7.49606 38.9203 7.89439C38.9203 8.09356 39.1195 8.29272 39.3186 8.49188C39.5177 8.69105 39.7168 8.69105 39.9159 8.69105C40.1151 8.69105 40.3142 8.69105 40.5133 8.49188C40.7124 8.29272 40.7124 8.09356 40.7124 7.89439C40.7124 7.49606 40.7124 7.2969 40.5133 6.89857C40.3142 6.69941 40.1151 6.30108 39.7168 6.10192L38.323 5.30526C37.9247 5.1061 37.7256 4.70777 37.5265 4.5086C37.3274 4.11028 37.1282 3.71195 37.3274 3.31362C37.3274 2.71613 37.5265 2.11864 37.9247 1.72031C38.7212 1.12282 39.7168 0.923652 40.5133 1.32198C40.7124 1.52114 40.9116 1.52114 41.1107 1.91947C41.3098 2.11864 41.5089 2.3178 41.5089 2.71613C41.5089 3.11446 41.7081 3.31362 41.7081 3.71195L40.3142 3.91111C40.3142 3.71195 40.3142 3.31362 40.3142 3.11446C40.3142 2.91529 40.3142 2.91529 40.1151 2.71613C39.9159 2.51696 39.7168 2.51696 39.5177 2.51696C39.3186 2.51696 39.1195 2.51696 38.9203 2.71613C38.7212 2.91529 38.7212 3.11446 38.7212 3.31362C38.7212 3.51278 38.7212 3.91111 38.9203 4.11028C39.1195 4.30944 39.3186 4.5086 39.5177 4.70777L40.7124 5.70359C41.1107 6.10192 41.5089 6.30108 41.7081 6.89857C41.9072 7.2969 42.1063 7.89439 42.1063 8.49188C42.1063 8.89021 42.1063 9.28854 41.9072 9.68687C41.708 10.0852 41.5089 10.2844 41.1107 10.4835C40.7124 10.0852 40.3142 10.0852 39.9159 10.0852Z" fill="white"/>
<path d="M43.3011 10.0852V2.31779H41.9072V1.1228H46.487V2.31779H45.0932V10.0852H43.3011Z" fill="white"/>
<path d="M46.6862 10.0852V1.1228H48.8765C49.4739 1.1228 49.8721 1.1228 50.4695 1.32197C50.8677 1.52113 51.266 1.72029 51.4651 2.11862C51.6642 2.51695 51.8633 3.11444 51.8633 3.51277C51.8633 3.9111 51.8633 4.11026 51.8633 4.50859C51.8633 4.70775 51.6642 5.10608 51.4651 5.30525C51.266 5.50441 51.0669 5.70357 50.8677 5.70357L52.0625 10.0852H50.4695L49.4739 5.90274H48.2791V10.0852H46.6862ZM48.2791 4.90692H48.8765C49.0756 4.90692 49.4739 4.90692 49.673 4.70775C49.8721 4.70775 50.0712 4.50859 50.0712 4.30943C50.0712 4.11026 50.2704 3.71193 50.2704 3.51277C50.2704 3.11444 50.2704 2.71611 50.0712 2.51695C49.8721 2.31779 49.4739 2.11862 49.0756 2.11862H48.2791V4.90692Z" fill="white"/>
<path d="M53.4563 10.0854V6.50042L51.6642 0.923828H53.2572L54.2528 4.50878L55.2484 0.923828H56.8414L55.0493 6.50042V9.88621H53.4563V10.0854Z" fill="white"/>
<path d="M56.8414 11.4794L56.6422 10.8819C56.8414 10.8819 57.0405 10.6827 57.2396 10.4836C57.4387 10.2844 57.4387 10.0853 57.4387 9.88609H56.6422V8.49194H58.0361V9.88609C58.0361 10.2844 58.0361 10.6827 57.6379 11.0811C57.4387 11.2802 57.2396 11.4794 56.8414 11.4794Z" fill="white"/>
<path d="M60.8239 10.0852V1.1228H62.4169V10.0852H60.8239Z" fill="white"/>
<path d="M63.2134 18.0852V9.1228H64.4082L66.5985 14.3011V9.1228H67.9924V18.0852H66.9968L64.6073 12.7078V18.0852H63.2134Z" fill="white"/>
<path d="M68.7888 18.0852V9.1228H69.9835L72.1738 14.3011V9.1228H73.5677V18.0852H72.5721L70.1826 12.7078V18.0852H68.7888Z" fill="white"/>
<path d="M76.5546 18.0854C75.9572 18.0854 75.559 18.0854 74.9616 17.6871C74.5634 17.4879 74.3642 17.0896 74.1651 16.6913C73.966 16.0938 73.966 15.6954 73.966 15.0979V11.9113C73.966 11.3138 73.966 10.9155 74.1651 10.318C74.3642 9.91968 74.5634 9.52135 74.9616 9.32218C75.9572 8.92386 76.9528 8.92386 77.9485 9.32218C78.3467 9.52135 78.5458 9.91968 78.7449 10.318C78.9441 10.9155 78.9441 11.3138 78.9441 11.9113V15.2971C78.9441 15.8946 78.9441 16.2929 78.7449 16.8904C78.5458 17.2887 78.3467 17.6871 77.9485 17.8862C77.7493 18.0854 77.152 18.0854 76.5546 18.0854ZM76.5546 16.8904C76.7537 16.8904 76.9528 16.8904 77.152 16.6913C77.3511 16.4921 77.3511 16.2929 77.3511 16.0938C77.3511 15.8946 77.3511 15.6954 77.3511 15.4963V11.513C77.3511 11.3138 77.3511 11.1147 77.3511 10.9155C77.3511 10.7163 77.152 10.5172 77.152 10.5172C76.9528 10.318 76.7537 10.318 76.5546 10.318C76.3555 10.318 76.1564 10.318 75.9572 10.5172C75.7581 10.7163 75.7581 10.7163 75.7581 10.9155C75.7581 11.1147 75.7581 11.3138 75.7581 11.513V15.6954C75.7581 15.8946 75.7581 16.0938 75.7581 16.2929C75.7581 16.4921 75.9572 16.6913 75.9572 16.8904C76.1564 16.8904 76.3555 16.8904 76.5546 16.8904Z" fill="white"/>
<path d="M81.1345 18.0852L79.3423 9.1228H80.7362L81.9309 15.4961L83.1257 9.1228H84.7187L82.9266 18.0852H81.1345Z" fill="white"/>
<path d="M17.8134 24.624L19.6055 15.6616H21.3976L23.1897 24.624H21.5967L21.1984 22.6324H19.8046L19.4063 24.624H17.8134ZM19.8046 21.6365H20.9993L20.4019 17.8524L19.8046 21.6365Z" fill="white"/>
<path d="M23.5879 24.624V15.6616H24.5835L26.7739 20.8399V15.6616H28.1677V24.624H27.1721L24.9817 19.2466V24.624H23.5879Z" fill="white"/>
<path d="M29.1633 24.624V15.6616H31.3537C31.951 15.6616 32.5484 15.6616 33.1458 15.8608C33.544 16.0599 33.9423 16.4583 33.9423 16.8566C34.1414 17.4541 34.1414 17.8524 34.1414 18.4499V21.6365C34.1414 22.234 34.1414 22.8315 33.9423 23.2299C33.7432 23.6282 33.544 24.0265 33.1458 24.2257C32.5484 24.624 31.951 24.624 31.3537 24.624H29.1633ZM30.9554 23.6282H31.5528C31.7519 23.6282 32.1502 23.6282 32.3493 23.429C32.5484 23.2299 32.5484 23.0307 32.5484 22.8315C32.5484 22.4332 32.5484 22.234 32.5484 21.8357V18.4499C32.5484 18.2508 32.5484 17.8524 32.5484 17.6533C32.5484 17.4541 32.3493 17.2549 32.1502 17.2549C31.951 17.0558 31.5528 17.0558 31.3537 17.0558H30.7563V23.6282H30.9554Z" fill="white"/>
<path d="M37.3274 24.624V15.6616H38.9204V24.624H37.3274Z" fill="white"/>
<path d="M39.916 24.624V15.6616H41.1108L43.3011 20.8399V15.6616H44.695V24.624H43.6993L41.509 19.2466V24.624H39.916Z" fill="white"/>
<path d="M84.1212 79.627L69.3861 71.063V54.134C69.3861 53.7357 69.187 53.5366 68.7887 53.3374L53.6554 44.5742C53.2572 44.375 53.0581 44.375 52.6598 44.5742L37.5265 53.3374C37.1282 53.5366 37.1282 53.9349 36.9291 54.134V71.063L22.194 79.627C21.7958 79.8262 21.5967 80.2245 21.5967 80.4237V98.1493C21.5967 98.5476 21.7958 98.7468 22.194 98.946L37.3274 107.709C37.5265 107.709 37.7256 107.908 37.9247 107.908C38.1239 107.908 38.323 107.908 38.5221 107.709L53.2572 99.1451L67.9923 107.709C68.3905 107.908 68.5896 107.908 68.9879 107.709L84.1212 98.946C84.5194 98.7468 84.7186 98.3485 84.7186 98.1493V80.4237C84.5194 80.0254 84.3203 79.8262 84.1212 79.627ZM52.2616 96.1577L40.1151 89.1869L52.2616 82.017V96.1577ZM66.3993 71.6605L54.2528 78.6312V64.4906L66.3993 71.6605ZM52.0624 78.6312L39.916 71.6605L52.0624 64.6897V78.6312ZM55.0493 80.4237L68.1914 72.8555L81.3335 80.4237L68.1914 88.1911L55.0493 80.4237ZM67.3949 69.868L55.2484 62.8973L67.3949 55.9265V69.868ZM51.0668 62.8973L38.9203 69.868V55.7274L51.0668 62.8973ZM36.9291 105.12L23.787 97.5518V82.2162L36.9291 89.7844V105.12ZM38.9203 105.12V90.9794L51.0668 98.1493L38.9203 105.12ZM82.5282 97.3526L69.3861 104.921V89.7844L82.5282 82.2162V97.3526Z" fill="white"/>
<path d="M45.4915 24.624V15.6616H49.2748V16.8566H47.2836V19.4457H48.8765V20.6407H47.2836V24.624H45.4915Z" fill="white"/>
<path d="M49.673 24.624V15.6616H51.8634C52.4607 15.6616 52.859 15.6616 53.4563 15.8608C53.6555 16.0599 54.0537 16.2591 54.2528 16.6574C54.4519 17.0558 54.6511 17.6533 54.6511 18.0516C54.6511 18.4499 54.6511 18.6491 54.6511 19.0474C54.6511 19.2466 54.4519 19.6449 54.2528 19.8441C54.0537 20.0432 53.8546 20.2424 53.6555 20.2424L54.8502 24.624H53.2572L52.0625 20.6407H51.266V24.624H49.673ZM51.266 19.4457H51.8634C52.0625 19.4457 52.4607 19.4457 52.6598 19.2466C52.859 19.2466 53.0581 19.0474 53.0581 18.8482C53.0581 18.6491 53.2572 18.2508 53.2572 18.0516C53.2572 17.6533 53.2572 17.2549 53.0581 17.0558C52.859 16.8566 52.4607 16.6574 52.0625 16.6574H51.4651V19.4457H51.266Z" fill="white"/>
<path d="M54.8501 24.624L56.6422 15.6616H58.4343L60.2264 24.624H58.6335L58.2352 22.6324H56.6422L56.244 24.624H54.8501ZM56.8414 21.6365H58.0361L57.4387 17.8524L56.8414 21.6365Z" fill="white"/>
<path d="M63.0142 32.8234C62.6159 32.8234 62.0186 32.8234 61.6203 32.425C61.2221 32.2259 61.023 31.8275 60.8238 31.4292C60.6247 31.0309 60.4256 30.4334 60.4256 29.8359L61.8195 29.6367C61.8195 30.0351 61.8195 30.2342 62.0186 30.6326C62.0186 30.8317 62.2177 31.0309 62.4168 31.23C62.6159 31.4292 62.8151 31.4292 63.0142 31.4292C63.2133 31.4292 63.4124 31.4292 63.6116 31.23C63.8107 31.0309 63.8107 30.8317 63.8107 30.6326C63.8107 30.2342 63.8107 30.0351 63.6116 29.6367C63.4124 29.4376 63.2133 29.0392 62.8151 28.8401L61.6203 27.8443C61.4212 27.6451 61.023 27.2468 60.8238 26.8484C60.6247 26.4501 60.6247 26.0518 60.6247 25.6535C60.6247 25.056 60.8238 24.4585 61.2221 24.0601C61.6203 23.6618 62.2177 23.4626 62.8151 23.4626C63.2133 23.4626 63.6116 23.4626 63.8107 23.6618C64.0098 23.861 64.4081 24.0601 64.6072 24.2593C64.8063 24.4585 64.8063 24.8568 65.0054 25.056C65.0054 25.2551 65.2045 25.6534 65.2045 26.0518L63.8107 26.2509C63.8107 26.0518 63.8107 25.6534 63.8107 25.4543C63.8107 25.2551 63.6116 25.056 63.6116 24.8568C63.4124 24.6576 63.2133 24.6576 63.0142 24.6576C62.8151 24.6576 62.6159 24.6576 62.4168 24.8568C62.2177 25.2551 62.2177 25.4543 62.2177 25.6535C62.2177 25.8526 62.2177 26.2509 62.4168 26.4501C62.6159 26.6493 62.8151 26.8484 63.0142 27.0476L64.2089 28.0434C64.6072 28.4417 64.8063 28.6409 65.2045 29.2384C65.4037 29.6367 65.6028 30.2342 65.6028 30.8317C65.6028 31.23 65.6028 31.6284 65.4037 32.0267C65.2045 32.425 65.0054 32.6242 64.6072 32.8234C63.8107 32.8234 63.4124 32.8234 63.0142 32.8234Z" fill="white"/>
<path d="M66.5985 32.624V24.8566H65.2047V23.6616H69.7845V24.8566H68.1915V32.624H66.5985Z" fill="white"/>
<path d="M69.9836 32.624V23.6616H72.1739C72.7713 23.6616 73.1695 23.6616 73.7669 23.8608C74.1652 24.0599 74.5634 24.2591 74.7625 24.6574C74.9616 25.0558 75.1608 25.6533 75.1608 26.0516C75.1608 26.4499 75.1608 26.6491 75.1608 27.0474C75.1608 27.2466 74.9616 27.6449 74.7625 27.8441C74.5634 28.0432 74.3643 28.2424 74.1652 28.2424L75.3599 32.624H73.7669L72.5722 28.6407H71.7757V32.624H69.9836ZM71.7757 27.4457H72.1739C72.373 27.4457 72.7713 27.4457 72.9704 27.2466C73.1695 27.2466 73.3687 27.0474 73.3687 26.8482C73.3687 26.6491 73.5678 26.2508 73.5678 26.0516C73.5678 25.6533 73.5678 25.2549 73.3687 25.0558C73.1695 24.8566 72.7713 24.6574 72.373 24.6574H71.7757V27.4457Z" fill="white"/>
<path d="M78.3467 32.8232C77.7493 32.8232 77.3511 32.8232 76.7537 32.4248C76.3555 32.2257 76.1564 31.8273 75.9572 31.429C75.7581 30.8315 75.7581 30.4332 75.7581 29.8357V23.8608H77.3511V30.0349C77.3511 30.234 77.3511 30.6324 77.3511 30.8315C77.3511 31.0307 77.5502 31.2299 77.5502 31.429C77.7493 31.6282 77.9485 31.6282 78.1476 31.6282C78.3467 31.6282 78.5458 31.6282 78.745 31.429C78.9441 31.2299 78.9441 31.0307 78.9441 30.8315C78.9441 30.6324 78.9441 30.234 78.9441 30.0349V23.6616H80.5371V29.8357C80.5371 30.4332 80.5371 30.8315 80.3379 31.429C80.1388 31.8273 79.9397 32.2257 79.5415 32.4248C79.3423 32.624 78.745 32.8232 78.3467 32.8232Z" fill="white"/>
</svg>
