<svg width="107" height="105" viewBox="0 0 107 105" fill="none" xmlns="http://www.w3.org/2000/svg">
<path d="M105.968 79.092C86.4548 52.6473 49.5042 47.2334 23.1406 66.8067C18.5736 70.3465 14.4219 74.3028 10.8929 79.092L10.4777 79.5084L10.8929 80.1331C30.4061 106.578 67.3568 111.992 93.7204 92.4185C98.2873 88.8786 102.439 84.9223 105.968 80.1331L106.383 79.5084L105.968 79.092ZM42.4462 67.0149C42.6538 66.5984 43.4842 65.5573 43.6917 65.3491C43.8993 65.1408 44.3145 64.9326 44.7297 64.9326C44.9373 64.9326 45.3525 64.9326 45.56 65.3491C45.56 65.7655 45.56 66.182 45.3524 66.5984C44.7297 67.2231 44.1069 67.4313 43.2766 67.6396C42.6538 67.6396 42.4462 67.2231 42.4462 67.0149ZM41.4083 69.0971C42.031 68.6807 42.4462 68.4725 43.069 68.4725C43.4842 68.4725 44.3145 68.6807 44.3145 68.8889C44.3145 69.0971 43.069 69.93 42.8614 70.1383C42.2386 70.7629 41.2007 72.0123 40.3703 72.2205C40.1628 72.2205 39.9552 72.2205 39.7476 72.2205C40.3703 71.1794 40.9931 70.1383 41.4083 69.0971ZM52.2028 91.3773C51.9953 92.4185 51.5801 93.2514 50.9573 93.8761C50.127 94.5007 49.2966 94.9172 48.2587 94.9172C47.4283 94.9172 47.2207 92.4185 47.2207 91.1691C47.2207 90.7527 46.598 92.002 46.1828 89.5033C45.9752 87.8375 44.9373 89.7115 44.9373 88.4622C44.9373 87.421 44.3145 87.6293 43.6917 86.7964C43.069 86.1717 42.4462 86.7964 41.6159 87.2128C40.7855 87.6293 41.2007 87.8375 39.9552 87.421C38.9172 84.9223 38.2945 82.2154 38.2945 79.7167C38.2945 79.092 38.2945 78.2591 38.2945 77.6344L38.5021 77.4262C39.54 76.1768 39.54 75.7604 39.54 75.7604L40.7855 75.3439C41.8235 75.5522 43.069 75.7604 44.1069 76.1768C45.3524 76.5933 47.0131 77.6344 48.2587 77.218C49.2966 76.8015 49.7118 76.5933 49.5042 75.7604C49.5042 75.1357 48.6739 74.7192 48.0511 75.3439C47.8435 75.5522 47.2207 74.0946 46.8056 74.0946C46.3904 74.0946 47.4283 75.7604 47.0132 75.7604C46.598 75.7604 45.7676 74.0946 45.56 73.8863C45.3525 73.6781 44.7297 72.8452 44.3145 73.4699C43.069 74.511 41.2007 74.511 40.7855 74.7192C39.54 75.5522 39.3324 74.511 39.3324 73.6781C39.3324 73.4699 39.3324 73.2617 39.54 73.2617C40.1628 72.8452 40.9931 72.637 41.8235 73.0534C42.2386 73.4699 42.6538 73.0534 42.8614 72.8452C43.069 72.637 43.069 72.2205 42.8614 72.0123C42.6538 71.8041 43.069 71.5959 43.4842 71.3876C44.1069 71.1794 44.5221 70.763 45.1449 70.3465C46.1828 69.93 47.2207 69.93 48.2587 70.3465C48.8814 70.763 49.9194 70.5547 50.3346 69.93C50.7497 69.5136 51.1649 69.0971 51.7877 68.6807C51.9953 68.4725 51.1649 67.6396 50.3346 68.6807C49.5042 69.7218 49.089 69.7218 48.6739 69.7218C48.2587 69.7218 45.9752 69.0971 45.7676 68.4725C45.56 67.8478 46.3904 67.2231 47.4283 66.8067C48.6739 66.3902 49.7118 66.182 50.9573 66.182C52.2028 65.9737 53.656 65.3491 54.4863 65.7655C55.3167 66.3902 51.1649 67.2231 52.618 67.8478C53.0332 68.056 55.3167 66.5984 55.9394 66.182C57.6001 65.3491 54.2787 64.9326 54.6939 63.2668C55.1091 61.3928 50.5421 62.0175 48.2587 62.2257C57.6001 56.1871 69.8478 59.1023 75.8678 68.4725C77.1134 70.3465 77.9437 72.4288 78.3589 74.511C78.3589 74.7192 78.3589 75.1357 78.3589 75.3439C78.1513 75.9686 77.321 76.3851 76.6982 76.1768C76.4906 76.1768 76.283 75.9686 76.0754 75.5521C75.8678 75.3439 75.0375 74.511 75.0375 75.7604C75.0375 77.218 76.4906 77.218 75.0375 78.0509C74.4147 78.4673 73.792 78.6755 72.9616 78.8838C72.1313 79.5085 71.9237 80.3414 71.9237 81.3825C72.1313 82.2154 73.9995 84.2977 72.5464 84.0894C71.3009 83.4647 70.263 82.6318 69.4326 81.3825C69.0174 80.3414 68.6023 79.092 68.1871 78.2591C67.9795 77.6344 67.3567 77.218 66.734 77.4262C66.5264 77.4262 66.5264 77.6344 66.3188 77.6344C65.696 78.0509 66.5264 78.6755 65.9036 79.7167C65.2809 80.7578 65.0733 81.7989 64.2429 80.7578C62.3746 78.4673 59.4684 79.7167 59.0532 77.0097C58.8456 75.5522 57.6001 75.7604 56.7698 74.9275C55.7318 74.0946 55.3167 73.6781 55.1091 74.3028C54.9015 74.9275 58.2229 77.4262 58.4305 78.0509C58.8456 79.092 57.3925 79.9249 56.5622 80.1331C55.5242 80.3414 55.1091 79.5084 54.2787 78.6755C53.4484 77.6344 53.0332 77.0097 52.8256 77.8426C52.8256 79.092 53.656 80.3414 54.6939 81.1743C55.5242 81.7989 56.3546 82.0072 56.147 82.8401C55.9394 83.673 56.147 83.2565 55.3167 84.0894C54.4863 84.7141 54.0711 85.547 54.2787 86.5881C54.2787 87.421 54.0711 88.254 53.8635 88.8786C53.656 89.9198 53.2408 89.0869 52.8256 90.5444M73.5844 83.2565C74.2071 83.2565 75.2451 84.0894 74.8299 84.5059C74.2071 84.9223 73.3768 84.7141 72.9616 84.2977C72.5464 83.8812 73.3768 83.2565 73.5844 83.2565ZM72.754 82.6318C72.5464 82.6318 72.3388 82.4236 72.1313 81.7989C71.9237 81.1743 72.3388 80.966 72.754 81.1743C73.1692 81.3825 73.5844 81.7989 73.792 82.2154C73.792 82.6318 72.9616 82.6318 72.754 82.6318ZM64.0353 82.6318C63.4126 82.8401 62.5822 82.8401 62.1671 82.4236C61.5443 82.0072 62.5822 81.3825 62.7898 81.3825C63.4126 81.3825 64.2429 82.2154 64.0353 82.6318ZM55.7318 86.5881C55.5242 87.0046 54.6939 90.3362 54.2787 90.128C53.8635 89.7115 54.4863 86.1717 54.6939 85.9635C55.3167 84.2976 57.1849 84.5059 55.7318 86.5881ZM58.4305 99.7064C56.5622 99.7064 54.6939 99.4982 52.8256 98.8735C52.618 98.6653 52.4104 98.2488 52.618 97.8324C53.4484 96.3748 54.9015 95.5419 56.5622 95.3336C59.8836 94.9172 64.0353 97.4159 64.6581 96.9995C65.2809 96.583 66.734 94.9172 68.8099 94.9172C69.4326 94.9172 70.0554 95.1254 70.6781 95.3336C67.1492 98.2488 62.7898 99.7064 58.4305 99.7064ZM72.5464 93.8761C72.3388 93.8761 72.1313 93.6678 71.9237 93.6678C70.8857 93.0432 70.8857 94.0843 70.4706 93.8761C70.0554 93.6678 71.0933 92.4185 69.4326 93.4596C67.7719 94.5007 68.1871 93.2514 67.5643 91.5856C67.1492 89.9198 67.9795 88.0457 69.6402 87.2128C70.8857 86.7964 72.1313 86.5881 73.3768 86.1717C75.8678 85.547 76.283 84.0894 76.6982 84.9223C76.6982 85.1306 76.9058 85.3388 76.9058 85.3388C77.1134 85.7552 77.1134 86.1717 77.321 86.5881C76.0754 89.5033 74.6223 91.7938 72.5464 93.8761ZM78.1513 83.673C77.5285 83.4647 75.4527 80.3414 77.1134 78.4673C77.321 78.0509 76.4906 77.218 76.6982 77.0097C77.5285 77.0097 78.3589 77.6344 78.3589 78.4673V79.5084C78.5665 80.966 78.3589 82.2154 78.1513 83.673Z" fill="white"/>
<path d="M4.45761 5.7892C4.25002 5.99743 3.62726 6.20565 2.58932 6.62211L0.928619 7.03856V3.70694C1.75897 3.29049 2.58932 2.87404 3.41967 2.45758C4.25002 2.04113 4.87279 1.62468 5.49555 1H9.23213V25.5707H4.45761V5.7892Z" fill="white"/>
<path d="M13.1763 24.2409C12.1384 22.5751 11.5156 20.701 11.5156 18.827V17.7859H16.2901V18.6188C16.2901 19.4517 16.4977 20.4928 16.7053 21.3257C16.9129 21.9504 17.5357 22.1586 18.366 22.1586C18.9888 22.1586 19.6115 21.9504 19.8191 21.3257C20.2343 20.4928 20.2343 19.4517 20.2343 18.6188C20.2343 17.5777 20.0267 16.5365 19.6115 15.7036C19.1964 15.0789 18.366 14.6625 17.5357 14.6625H16.7053V11.3309H17.5357C18.366 11.3309 19.1964 11.1226 19.6115 10.498C20.0267 9.66506 20.2343 8.62393 20.2343 7.5828C20.2343 6.74989 20.2343 5.91699 19.8191 5.29231C19.1964 4.66763 18.7812 4.45941 18.1584 4.45941C17.5357 4.25118 16.9129 4.66763 16.7053 5.29231C16.2901 5.91699 16.2901 6.74989 16.2901 7.5828V8.62393H11.5156V7.5828C11.5156 5.70876 12.1384 3.83473 13.3839 2.58537C14.6294 1.33601 16.2901 0.711334 18.1584 0.711334C20.0267 0.503108 21.6874 1.12779 23.1405 2.37714C24.3861 3.6265 25.0088 5.50054 24.8012 7.16635C24.8012 8.4157 24.5937 9.66506 23.9709 10.7062C23.5557 11.5391 22.7254 12.1638 21.6874 12.5802C23.7633 13.4131 24.8012 15.2872 24.8012 18.4106C25.0088 20.4928 24.3861 22.3669 23.1405 24.0327C21.895 25.4903 20.0267 26.3232 18.1584 26.1149C16.2901 26.3232 14.4219 25.6985 13.1763 24.2409Z" fill="white"/>
<path d="M37.2565 10.7063C36.6337 10.7063 36.2186 10.7063 35.5958 10.2899C35.1806 10.0816 34.973 9.66518 34.7654 9.24872C34.5579 8.62405 34.5579 8.20759 34.5579 7.58292V4.04307C34.5579 3.41839 34.5579 3.00194 34.7654 2.37726C34.973 1.96081 35.1806 1.54436 35.5958 1.33613C36.011 1.1279 36.6337 0.919678 37.2565 0.919678C37.6717 0.919678 38.2944 0.919678 38.7096 1.33613C39.1248 1.54436 39.3324 1.96081 39.54 2.37726C39.7476 2.79371 39.7476 3.41839 39.7476 3.83484V4.45952H38.0868V2.79371C38.0868 2.58549 38.0868 2.37726 37.8793 2.16903C37.6717 1.96081 37.4641 1.96081 37.2565 1.96081C37.0489 1.96081 36.8413 1.96081 36.6337 2.16903C36.4262 2.37726 36.4261 2.58549 36.4261 2.79371C36.4261 3.00194 36.4261 3.21017 36.4261 3.62662V7.79114C36.4261 7.99937 36.4261 8.41582 36.4261 8.62405C36.4261 8.83227 36.6337 9.0405 36.6337 9.0405C36.8413 9.24872 37.0489 9.24872 37.2565 9.24872C37.4641 9.24872 37.6717 9.24872 37.8793 9.0405C37.8793 8.83227 38.0868 8.62405 38.0868 8.41582V6.95824H39.7476V7.79114C39.7476 8.20759 39.7476 8.83227 39.54 9.24872C39.3324 9.66518 39.1248 10.0816 38.7096 10.2899C38.2944 10.4981 37.6717 10.7063 37.2565 10.7063Z" fill="white"/>
<path d="M40.5779 10.4981V1.12793H42.2386V9.45698H44.522V10.7063L40.5779 10.4981Z" fill="white"/>
<path d="M45.1448 10.4981V1.12793H46.8055V10.4981H45.1448Z" fill="white"/>
<path d="M47.8434 10.4981L48.051 1.12793H49.9193L51.3724 7.58294L52.8255 1.12793H54.4862L54.6938 10.4981H53.4483L53.2407 4.0431L51.9952 10.4981H50.7497L49.2966 3.83487L49.089 10.4981H47.8434Z" fill="white"/>
<path d="M54.9015 10.4981L56.7698 1.12793H58.6381L60.5064 10.4981H59.0533L58.6381 8.41585H56.9774L56.5622 10.4981H54.9015ZM56.9774 7.16649H58.2229L57.6002 3.21019L56.9774 7.16649Z" fill="white"/>
<path d="M61.7519 10.4981V2.37729H60.2988V1.12793H65.0733V2.37729H63.6202V10.4981H61.7519Z" fill="white"/>
<path d="M65.2808 18.4981V9.12793H69.225V10.3773H66.9415V12.876H68.6022V14.1254H66.9415V17.2488H69.4325V18.4981H65.2808Z" fill="white"/>
<path d="M34.1427 25.9068L36.011 16.5366H37.8793L39.7476 25.9068H38.0869L37.6717 23.8245H36.2186L35.8034 25.9068H34.1427ZM36.2186 22.5752H37.4641L36.8414 18.6189L36.2186 22.5752Z" fill="white"/>
<path d="M42.8614 25.9068C42.2387 25.9068 41.8235 25.6985 41.2007 25.4903C40.7855 25.2821 40.578 24.8656 40.3704 24.4492C40.1628 23.8245 40.1628 23.4081 40.1628 22.7834V19.4518C40.1628 18.8271 40.1628 18.4106 40.3704 17.786C40.3704 17.3695 40.7855 16.953 41.2007 16.7448C41.6159 16.5366 42.2387 16.3284 42.8614 16.3284C43.4842 16.3284 43.8994 16.3284 44.3145 16.7448C44.7297 16.953 44.9373 17.3695 45.1449 17.786C45.3525 18.2024 45.3525 18.8271 45.3525 19.2435V20.0764H43.6918V18.2024C43.6918 17.9942 43.6918 17.786 43.4842 17.5777C43.2766 17.3695 43.069 17.3695 42.8614 17.3695C42.6538 17.3695 42.4462 17.3695 42.2387 17.5777C42.0311 17.786 42.0311 17.9942 42.0311 18.2024C42.0311 18.4106 42.0311 18.6189 42.0311 19.0353V23.1998C42.0311 23.4081 42.0311 23.8245 42.0311 24.0327C42.0311 24.241 42.2387 24.4492 42.2387 24.4492C42.4462 24.6574 42.6538 24.6574 42.8614 24.6574C43.069 24.6574 43.2766 24.6574 43.4842 24.4492C43.6918 24.241 43.6918 24.0327 43.6918 23.8245V22.1587H45.3525V22.9916C45.3525 23.4081 45.3525 24.0327 45.1449 24.4492C44.9373 24.8656 44.7297 25.2821 44.3145 25.4903C43.8994 25.9068 43.2766 26.115 42.8614 25.9068Z" fill="white"/>
<path d="M47.0131 25.9068V17.786H45.56V16.5366H50.3345V17.786H48.8814V25.9068H47.0131Z" fill="white"/>
<path d="M50.7498 25.9068V16.5366H52.4105V25.9068H50.7498Z" fill="white"/>
<path d="M56.147 25.9069C55.5242 25.9069 55.1091 25.6987 54.4863 25.4905C54.0711 25.2822 53.8635 24.8658 53.656 24.4493C53.4484 23.8246 53.4484 23.4082 53.4484 22.7835V19.4519C53.4484 18.8272 53.4484 18.4108 53.656 17.7861C53.8635 17.3696 54.0711 16.9532 54.4863 16.745C55.5242 16.3285 56.7698 16.3285 57.6001 16.745C58.0153 16.9532 58.2229 17.3696 58.4305 17.7861C58.6381 18.4108 58.6381 18.8272 58.6381 19.4519V22.9917C58.6381 23.6164 58.6381 24.0329 58.4305 24.6576C58.2229 25.074 58.0153 25.4905 57.6001 25.6987C57.3925 25.9069 56.7698 26.1151 56.147 25.9069ZM56.147 24.6576C56.3546 24.6576 56.5622 24.6576 56.7698 24.4493C56.9774 24.2411 56.9774 24.0329 56.9774 23.8246C56.9774 23.6164 56.9774 23.4082 56.9774 23.2V19.0354C56.9774 18.8272 56.9774 18.619 56.9774 18.4108C56.9774 18.2025 56.7698 17.9943 56.7698 17.9943C56.5622 17.7861 56.3546 17.7861 56.147 17.7861C55.9394 17.7861 55.7318 17.7861 55.5242 17.9943C55.3167 18.2025 55.3167 18.2025 55.3167 18.4108C55.3167 18.619 55.3167 18.8272 55.3167 19.0354V23.4082C55.3167 23.6164 55.3167 23.8246 55.3167 24.0329C55.3167 24.2411 55.5242 24.4493 55.5242 24.6576C55.7318 24.6576 55.9394 24.6576 56.147 24.6576Z" fill="white"/>
<path d="M59.8835 25.9068V16.5366H61.1291L63.4125 21.9505V16.5366H64.8656V25.9068H63.8277L61.5442 20.2847V25.9068H59.8835Z" fill="white"/>
</svg>
